<?xml version="1.0"?>
<svg width="576" height="512" xmlns="http://www.w3.org/2000/svg" xmlns:svg="http://www.w3.org/2000/svg">
 <!--!Font Awesome Free 6.5.1 by @fontawesome - https://fontawesome.com License - https://fontawesome.com/license/free Copyright 2024 Fonticons, Inc.-->
 <g class="layer">
  <title>Layer 1</title>
  <path d="m64,64c-35.3,0 -64,28.7 -64,64l0,256c0,35.3 28.7,64 64,64l448,0c35.3,0 64,-28.7 64,-64l0,-256c0,-35.3 -28.7,-64 -64,-64l-448,0zm16,64l32,0c8.8,0 16,7.2 16,16l0,32c0,8.8 -7.2,16 -16,16l-32,0c-8.8,0 -16,-7.2 -16,-16l0,-32c0,-8.8 7.2,-16 16,-16zm-16,112c0,-8.8 7.2,-16 16,-16l32,0c8.8,0 16,7.2 16,16l0,32c0,8.8 -7.2,16 -16,16l-32,0c-8.8,0 -16,-7.2 -16,-16l0,-32zm16,80l32,0c8.8,0 16,7.2 16,16l0,32c0,8.8 -7.2,16 -16,16l-32,0c-8.8,0 -16,-7.2 -16,-16l0,-32c0,-8.8 7.2,-16 16,-16zm80,-176c0,-8.8 7.2,-16 16,-16l32,0c8.8,0 16,7.2 16,16l0,32c0,8.8 -7.2,16 -16,16l-32,0c-8.8,0 -16,-7.2 -16,-16l0,-32zm16,80l32,0c8.8,0 16,7.2 16,16l0,32c0,8.8 -7.2,16 -16,16l-32,0c-8.8,0 -16,-7.2 -16,-16l0,-32c0,-8.8 7.2,-16 16,-16zm-16,112c0,-8.8 7.2,-16 16,-16l224,0c8.8,0 16,7.2 16,16l0,32c0,8.8 -7.2,16 -16,16l-224,0c-8.8,0 -16,-7.2 -16,-16l0,-32zm112,-208l32,0c8.8,0 16,7.2 16,16l0,32c0,8.8 -7.2,16 -16,16l-32,0c-8.8,0 -16,-7.2 -16,-16l0,-32c0,-8.8 7.2,-16 16,-16zm-16,112c0,-8.8 7.2,-16 16,-16l32,0c8.8,0 16,7.2 16,16l0,32c0,8.8 -7.2,16 -16,16l-32,0c-8.8,0 -16,-7.2 -16,-16l0,-32zm112,-112l32,0c8.8,0 16,7.2 16,16l0,32c0,8.8 -7.2,16 -16,16l-32,0c-8.8,0 -16,-7.2 -16,-16l0,-32c0,-8.8 7.2,-16 16,-16zm-16,112c0,-8.8 7.2,-16 16,-16l32,0c8.8,0 16,7.2 16,16l0,32c0,8.8 -7.2,16 -16,16l-32,0c-8.8,0 -16,-7.2 -16,-16l0,-32zm112,-112l32,0c8.8,0 16,7.2 16,16l0,32c0,8.8 -7.2,16 -16,16l-32,0c-8.8,0 -16,-7.2 -16,-16l0,-32c0,-8.8 7.2,-16 16,-16zm-16,112c0,-8.8 7.2,-16 16,-16l32,0c8.8,0 16,7.2 16,16l0,32c0,8.8 -7.2,16 -16,16l-32,0c-8.8,0 -16,-7.2 -16,-16l0,-32zm16,80l32,0c8.8,0 16,7.2 16,16l0,32c0,8.8 -7.2,16 -16,16l-32,0c-8.8,0 -16,-7.2 -16,-16l0,-32c0,-8.8 7.2,-16 16,-16z" fill="#817dd8" id="svg_1"/>
 </g>
</svg>