<?xml version="1.0" encoding="iso-8859-1"?>
<!-- Uploaded to: SVG Repo, www.svgrepo.com, Generator: SVG Repo Mixer Tools -->
<svg fill="#000000" height="800px" width="800px" version="1.1" id="Layer_1" xmlns="http://www.w3.org/2000/svg" xmlns:xlink="http://www.w3.org/1999/xlink" 
	 viewBox="0 0 507.9 507.9" xml:space="preserve">
<g>
	<g>
		<path d="M465.7,192.8h-200c6.3-23.9,28-41.6,53.8-41.6h31.8c38.1,0,69.2-31,69.2-69.2c0-38.1-31-69.2-69.2-69.2H91.5
			c-7.8,0-14.1,6.3-14.1,14.1S83.7,41,91.5,41h259.8c22.6,0,41,18.4,41,41c0,22.6-18.4,41-41,41h-31.8c-41.5,0-75.9,30.2-82.6,69.8
			H42.3C19,192.8,0,211.8,0,235.2v217.6c0,23.3,19,42.3,42.3,42.3h423.3c23.3,0,42.3-19,42.3-42.3V235.2
			C508,211.8,489,192.8,465.7,192.8z M465.7,466.8H42.3c-7.8,0-14.1-6.3-14.1-14.1V235.2c0-7.8,6.3-14.1,14.1-14.1h423.3
			c7.8,0,14.1,6.3,14.1,14.1v217.5h0.1C479.8,460.5,473.5,466.8,465.7,466.8z"/>
	</g>
</g>
<g>
	<g>
		<path d="M83,242.6H68.3c-7.8,0-14.1,6.3-14.1,14.1c0,7.8,6.3,14.1,14.1,14.1H83c7.8,0,14.1-6.3,14.1-14.1
			C97.1,248.9,90.8,242.6,83,242.6z"/>
	</g>
</g>
<g>
	<g>
		<path d="M154.3,242.6h-14.7c-7.8,0-14.1,6.3-14.1,14.1c0,7.8,6.3,14.1,14.1,14.1h14.7c7.8,0,14.1-6.3,14.1-14.1
			C168.4,248.9,162.1,242.6,154.3,242.6z"/>
	</g>
</g>
<g>
	<g>
		<path d="M225.7,242.6H211c-7.8,0-14.1,6.3-14.1,14.1c0,7.8,6.3,14.1,14.1,14.1h14.7c7.8,0,14.1-6.3,14.1-14.1
			C239.8,248.9,233.5,242.6,225.7,242.6z"/>
	</g>
</g>
<g>
	<g>
		<path d="M297,242.6h-14.7c-7.8,0-14.1,6.3-14.1,14.1c0,7.8,6.3,14.1,14.1,14.1H297c7.8,0,14.1-6.3,14.1-14.1
			C311.2,248.9,304.8,242.6,297,242.6z"/>
	</g>
</g>
<g>
	<g>
		<path d="M368.4,242.6h-14.7c-7.8,0-14.1,6.3-14.1,14.1c0,7.8,6.3,14.1,14.1,14.1h14.7c7.8,0,14.1-6.3,14.1-14.1
			C382.5,248.9,376.2,242.6,368.4,242.6z"/>
	</g>
</g>
<g>
	<g>
		<path d="M439.7,242.6H425c-7.8,0-14.1,6.3-14.1,14.1c0,7.8,6.3,14.1,14.1,14.1h14.7c7.8,0,14.1-6.3,14.1-14.1
			C453.9,248.9,447.5,242.6,439.7,242.6z"/>
	</g>
</g>
<g>
	<g>
		<path d="M83,300.8H68.3c-7.8,0-14.1,6.3-14.1,14.1S60.5,329,68.3,329H83c7.8,0,14.1-6.3,14.1-14.1C97.1,307.1,90.8,300.8,83,300.8
			z"/>
	</g>
</g>
<g>
	<g>
		<path d="M154.3,300.8h-14.7c-7.8,0-14.1,6.3-14.1,14.1c0,7.8,6.3,14.1,14.1,14.1h14.7c7.8,0,14.1-6.3,14.1-14.1
			C168.4,307.1,162.1,300.8,154.3,300.8z"/>
	</g>
</g>
<g>
	<g>
		<path d="M225.7,300.8H211c-7.8,0-14.1,6.3-14.1,14.1c0,7.8,6.3,14.1,14.1,14.1h14.7c7.8,0,14.1-6.3,14.1-14.1
			C239.8,307.1,233.5,300.8,225.7,300.8z"/>
	</g>
</g>
<g>
	<g>
		<path d="M297,300.8h-14.7c-7.8,0-14.1,6.3-14.1,14.1s6.3,14.1,14.1,14.1H297c7.8,0,14.1-6.3,14.1-14.1
			C311.2,307.1,304.8,300.8,297,300.8z"/>
	</g>
</g>
<g>
	<g>
		<path d="M368.4,300.8h-14.7c-7.8,0-14.1,6.3-14.1,14.1s6.3,14.1,14.1,14.1h14.7c7.8,0,14.1-6.3,14.1-14.1
			C382.5,307.1,376.2,300.8,368.4,300.8z"/>
	</g>
</g>
<g>
	<g>
		<path d="M439.7,300.8H425c-7.8,0-14.1,6.3-14.1,14.1S417.2,329,425,329h14.7c7.8,0,14.1-6.3,14.1-14.1
			C453.9,307.1,447.5,300.8,439.7,300.8z"/>
	</g>
</g>
<g>
	<g>
		<path d="M83,358.9H68.3c-7.8,0-14.1,6.3-14.1,14.1c0,7.8,6.3,14.1,14.1,14.1H83c7.8,0,14.1-6.3,14.1-14.1
			C97.1,365.3,90.8,358.9,83,358.9z"/>
	</g>
</g>
<g>
	<g>
		<path d="M154.3,359h-14.7c-7.8,0-14.1,6.3-14.1,14.1c0,7.7,6.3,14.1,14.1,14.1h14.7c7.8,0,14.1-6.3,14.1-14.1
			C168.4,365.3,162.1,359,154.3,359z"/>
	</g>
</g>
<g>
	<g>
		<path d="M225.7,359H211c-7.8,0-14.1,6.3-14.1,14.1c0,7.7,6.3,14.1,14.1,14.1h14.7c7.8,0,14.1-6.3,14.1-14.1
			C239.8,365.3,233.5,359,225.7,359z"/>
	</g>
</g>
<g>
	<g>
		<path d="M297,358.9h-14.7c-7.8,0-14.1,6.3-14.1,14.1c0,7.8,6.3,14.1,14.1,14.1H297c7.8,0,14.1-6.3,14.1-14.1
			C311.2,365.3,304.8,358.9,297,358.9z"/>
	</g>
</g>
<g>
	<g>
		<path d="M368.4,358.9h-14.7c-7.8,0-14.1,6.3-14.1,14.1c0,7.8,6.3,14.1,14.1,14.1h14.7c7.8,0,14.1-6.3,14.1-14.1
			C382.5,365.3,376.2,358.9,368.4,358.9z"/>
	</g>
</g>
<g>
	<g>
		<path d="M439.7,358.9H425c-7.8,0-14.1,6.3-14.1,14.1c0,7.8,6.3,14.1,14.1,14.1h14.7c7.8,0,14.1-6.3,14.1-14.1
			C453.9,365.3,447.5,358.9,439.7,358.9z"/>
	</g>
</g>
<g>
	<g>
		<path d="M83,417.1H68.3c-7.8,0-14.1,6.3-14.1,14.1c0,7.8,6.3,14.1,14.1,14.1H83c7.8,0,14.1-6.3,14.1-14.1
			C97.1,423.4,90.8,417.1,83,417.1z"/>
	</g>
</g>
<g>
	<g>
		<path d="M297,417.1H139.6c-7.8,0-14.1,6.3-14.1,14.1c0,7.8,6.3,14.1,14.1,14.1H297c7.8,0,14.1-6.3,14.1-14.1
			C311.2,423.4,304.8,417.1,297,417.1z"/>
	</g>
</g>
<g>
	<g>
		<path d="M368.4,417.1h-14.7c-7.8,0-14.1,6.3-14.1,14.1c0,7.8,6.3,14.1,14.1,14.1h14.7c7.8,0,14.1-6.3,14.1-14.1
			C382.5,423.4,376.2,417.1,368.4,417.1z"/>
	</g>
</g>
<g>
	<g>
		<path d="M439.7,417.1H425c-7.8,0-14.1,6.3-14.1,14.1c0,7.8,6.3,14.1,14.1,14.1h14.7c7.8,0,14.1-6.3,14.1-14.1
			C453.9,423.4,447.5,417.1,439.7,417.1z"/>
	</g>
</g>
</svg>